# xmcd CD database file
#
# Track frame offsets:
#	150
#	13595
#	27240
#	41672
#	54687
#	69665
#	84451
#	96161
#	108448
#	122377
#	135703
#	149198
#	161557
#	176097
#	189772
#	203916
#	216915
#	229651
#	243271
#	256784
#	271221
#	285891
#
# Disc length: 3998 seconds
#
# Revision: 0
# Processed by: cddbd v1.5.2PL0 Copyright (c) Steve Scherf et al.
# Submitted via: CDex 1.70beta2
#
DISCID=370f9c16
DTITLE=Billie Holiday - These Foolish Things
DYEAR=1900
DGENRE=Blues
TTITLE0=What A Little Moonlight Can Do
TTITLE1=24 Hours A Day
TTITLE2=If You Were Mine
TTITLE3=You Let Me Down
TTITLE4=It's Like Reaching For The Moon
TTITLE5=These Foolish Things
TTITLE6=No Regrets
TTITLE7=Your Mother's Son-In-Law
TTITLE8=I Wished On The Moon
TTITLE9=What A Night, What A Moon, What A Girl
TTITLE10=I'm Painting The Town Red
TTITLE11=Yankee Doodle Never Went To Town
TTITLE12=Eeny Meeny Miney Mo
TTITLE13=Life Begins When You're In Love
TTITLE14=Guess Who?
TTITLE15=Summertime
TTITLE16=A Fine Romance
TTITLE17=Let's Call A Heart A Heart
TTITLE18=The Way You Look Tonight
TTITLE19=Who Loves You
TTITLE20=Pennies From Heaven
TTITLE21=That's Life I Guess
EXTD=
EXTT0=
EXTT1=
EXTT2=
EXTT3=
EXTT4=
EXTT5=
EXTT6=
EXTT7=
EXTT8=
EXTT9=
EXTT10=
EXTT11=
EXTT12=
EXTT13=
EXTT14=
EXTT15=
EXTT16=
EXTT17=
EXTT18=
EXTT19=
EXTT20=
EXTT21=
PLAYORDER=
